<svg id="Layer_1" enable-background="new 0 0 512 512" height="512" viewBox="0 0 512 512" width="512" xmlns="http://www.w3.org/2000/svg"><g><circle id="XMLID_96_" cx="256" cy="256" fill="#ffea60" r="246"/><g><path d="m204 200c0-5.523-4.477-10-10-10h-60c-5.523 0-10 4.477-10 10s4.477 10 10 10h60c5.523 0 10-4.477 10-10z"/><path d="m156 356h200c5.523 0 10-4.477 10-10s-4.477-10-10-10h-200c-5.523 0-10 4.477-10 10s4.477 10 10 10z"/><path d="m388 200c0-5.523-4.477-10-10-10h-60c-5.523 0-10 4.477-10 10s4.477 10 10 10h60c5.523 0 10-4.477 10-10z"/><circle cx="440.321" cy="418.916" r="10"/><path d="m506.67 204.422c-9.677-46.571-32.233-90.29-65.212-124.946-47.971-50.41-115.91-79.476-185.457-79.476-70.451 0-139.228 29.851-187.286 81.417-43.832 47.031-68.715 110.304-68.715 174.571 0 64.981 25.461 128.943 70.176 176.126 47.962 50.609 116.151 79.886 185.844 79.886 29.11 0 57.67-4.85 84.9-14.421 26.33-9.261 50.84-22.712 72.87-39.982 2.1-1.65 3.44-4.02 3.76-6.671.32-2.65-.41-5.27-2.06-7.37-1.9-2.43-4.78-3.83-7.87-3.83-2.26 0-4.39.74-6.16 2.13-41.87 32.801-92.16 50.143-145.46 50.143-63.02 0-122.29-24.552-166.88-69.124-44.57-44.591-69.12-103.864-69.12-166.887s24.55-122.296 69.12-166.888c44.59-44.573 103.86-69.124 166.88-69.124s122.29 24.551 166.88 69.124c44.57 44.592 69.11 103.855 69.12 166.888 0 42.932-11.64 84.964-33.66 121.546-2.84 4.72-1.32 10.881 3.41 13.731 1.56.93 3.34 1.43 5.15 1.43 3.54 0 6.75-1.81 8.57-4.84 11.74-19.491 20.81-40.452 26.96-62.303 6.35-22.541 9.57-45.943 9.57-69.563 0-17.368-1.816-34.656-5.33-51.567z"/></g></g></svg>