<svg id="Layer_1" enable-background="new 0 0 512 512" height="512" viewBox="0 0 512 512" width="512" xmlns="http://www.w3.org/2000/svg"><g><path d="m256 10c-135.862 0-246 110.138-246 246s110.138 246 246 246 246-110.138 246-246-110.138-246-246-246z" fill="#ffea60"/><circle cx="175" cy="210" fill="#efefef" r="25"/><circle cx="349" cy="210" fill="#efefef" r="25"/><g><path d="m384 210c0-19.299-15.701-35-35-35s-35 15.701-35 35 15.701 35 35 35 35-15.701 35-35zm-50 0c0-8.271 6.729-15 15-15s15 6.729 15 15-6.729 15-15 15-15-6.729-15-15z"/><path d="m184.407 110.142c-5.407-1.117-10.699 2.359-11.818 7.768-1.328 6.421-6.192 12.644-13.697 17.522-10.485 6.815-24.61 9.855-35.15 7.563-5.399-1.173-10.723 2.25-11.896 7.646-1.174 5.397 2.25 10.723 7.646 11.896 3.8.826 7.79 1.229 11.873 1.229 12.999 0 26.915-4.083 38.427-11.566 12.017-7.811 19.965-18.55 22.383-30.241 1.118-5.407-2.359-10.698-7.768-11.817z"/><path d="m404.507 162.539c5.396-1.173 8.82-6.5 7.646-11.896-1.173-5.397-6.502-8.823-11.896-7.646-10.538 2.291-24.664-.748-35.15-7.563-7.505-4.878-12.369-11.101-13.697-17.522-1.119-5.408-6.414-8.886-11.818-7.768-5.409 1.119-8.886 6.41-7.768 11.818 2.418 11.691 10.367 22.431 22.383 30.241 11.513 7.484 25.427 11.566 38.427 11.566 4.083-.002 8.074-.404 11.873-1.23z"/><path d="m168.929 363.071c3.905 3.905 10.237 3.905 14.143 0l32.928-32.929 32.929 32.929c1.953 1.953 4.512 2.929 7.071 2.929s5.119-.976 7.071-2.929l32.929-32.929 32.928 32.929c1.875 1.875 4.419 2.929 7.071 2.929s5.196-1.054 7.071-2.929l40-40c3.905-3.905 3.906-10.237 0-14.142-3.905-3.906-10.237-3.905-14.142 0l-32.928 32.929-32.928-32.929c-1.876-1.875-4.42-2.929-7.072-2.929s-5.196 1.054-7.071 2.929l-32.929 32.929-32.929-32.929c-3.905-3.905-10.237-3.905-14.143 0l-32.928 32.929-32.929-32.929c-3.905-3.905-10.237-3.905-14.143 0s-3.905 10.237 0 14.143z"/><circle cx="440.321" cy="418.916" r="10"/><path d="m506.67 204.422c-9.677-46.571-32.233-90.29-65.212-124.946-47.971-50.41-115.91-79.476-185.457-79.476-70.451 0-139.228 29.851-187.286 81.417-43.832 47.031-68.715 110.304-68.715 174.571 0 64.981 25.461 128.943 70.176 176.126 47.962 50.609 116.151 79.886 185.844 79.886 29.11 0 57.67-4.85 84.9-14.421 26.33-9.261 50.84-22.712 72.87-39.982 2.1-1.65 3.44-4.02 3.76-6.671.32-2.65-.41-5.27-2.06-7.37-1.9-2.43-4.78-3.83-7.87-3.83-2.26 0-4.39.74-6.16 2.13-41.87 32.801-92.16 50.143-145.46 50.143-63.02 0-122.29-24.552-166.88-69.124-44.57-44.591-69.12-103.864-69.12-166.887s24.55-122.296 69.12-166.888c44.59-44.573 103.86-69.124 166.88-69.124s122.29 24.551 166.88 69.124c44.57 44.592 69.11 103.855 69.12 166.888 0 42.932-11.64 84.964-33.66 121.546-2.84 4.72-1.32 10.88 3.41 13.731 1.56.93 3.34 1.43 5.15 1.43 3.54 0 6.75-1.81 8.57-4.84 11.74-19.491 20.81-40.452 26.96-62.303 6.35-22.541 9.57-45.943 9.57-69.563 0-17.368-1.816-34.656-5.33-51.567z"/><path d="m140 210c0 19.299 15.701 35 35 35s35-15.701 35-35-15.701-35-35-35-35 15.701-35 35zm50 0c0 8.271-6.729 15-15 15s-15-6.729-15-15 6.729-15 15-15 15 6.729 15 15z"/></g></g></svg>