<svg id="Layer_1" enable-background="new 0 0 512 512" height="512" viewBox="0 0 512 512" width="512" xmlns="http://www.w3.org/2000/svg"><g><path d="m469.007 133.021c-67.92-117.641-218.346-157.947-335.986-90.028-117.641 67.92-157.947 218.346-90.028 335.986 67.92 117.64 218.346 157.947 335.986 90.027 117.641-67.919 157.947-218.345 90.028-335.985z" fill="#ffea60"/><ellipse cx="148.344" cy="253.503" fill="#efefef" rx="29.995" ry="29.995" transform="matrix(.757 -.654 .654 .757 -129.631 158.637)"/><path d="m322.663 187.495c14.346-8.283 19.262-26.627 10.979-40.974-8.283-14.346-26.628-19.262-40.974-10.979s-19.262 26.627-10.979 40.974 26.628 19.262 40.974 10.979z" fill="#efefef"/><path d="m151.114 374.281c54.855 49.285 130.468 63.215 189.872 28.918s85.147-106.745 69.892-178.893z" fill="#faf7f5"/><g><path d="m137.992 292.135c3.446.924 6.943 1.381 10.417 1.381 6.93 0 13.77-1.818 19.933-5.376 9.252-5.342 15.87-13.967 18.635-24.285 2.765-10.319 1.346-21.098-3.996-30.349-5.341-9.252-13.966-15.87-24.285-18.635-10.32-2.768-21.098-1.347-30.349 3.995-19.099 11.027-25.666 35.536-14.639 54.634 5.34 9.252 13.965 15.87 24.284 18.635zm.354-55.948c3.081-1.779 6.5-2.688 9.964-2.688 1.737 0 3.485.229 5.208.69 5.159 1.382 9.471 4.69 12.141 9.316 2.67 4.625 3.38 10.014 1.998 15.172-1.382 5.159-4.691 9.471-9.316 12.142-4.625 2.672-10.013 3.381-15.173 1.997-5.159-1.382-9.471-4.69-12.141-9.316-5.512-9.548-2.229-21.801 7.319-27.313z"/><path d="m287.668 126.882c-9.252 5.342-15.87 13.967-18.635 24.285-2.765 10.319-1.346 21.098 3.996 30.349 7.399 12.816 20.87 19.99 34.704 19.99 6.78 0 13.648-1.724 19.93-5.351 19.099-11.026 25.666-35.535 14.639-54.635-11.026-19.097-35.536-25.665-54.634-14.638zm29.995 51.953c-9.548 5.513-21.801 2.229-27.313-7.319-2.67-4.625-3.38-10.014-1.998-15.172 1.382-5.159 4.691-9.471 9.316-12.142 3.141-1.813 6.574-2.675 9.964-2.675 6.915 0 13.65 3.586 17.35 9.993 5.512 9.549 2.229 21.802-7.319 27.315z"/><path d="m242.75 429.956c9.008 1.454 17.946 2.176 26.77 2.176 27.183 0 53.229-6.855 76.466-20.271 30.78-17.771 54.048-45.558 67.289-80.356 12.822-33.696 15.376-71.48 7.387-109.266-.663-3.134-2.786-5.761-5.711-7.064-2.927-1.307-6.299-1.129-9.072.473l-259.765 149.973c-2.774 1.602-4.613 4.435-4.946 7.62s.88 6.338 3.263 8.479c28.728 25.811 62.727 42.492 98.319 48.236zm160.729-189.83c8.756 64.616-17.376 125.479-67.493 154.414-20.257 11.695-43.066 17.389-66.468 17.389-34.495-.002-70.272-12.379-101.005-36.146z"/><path d="m343.054 90.004c-19.08-9.834-40.757-11.617-61.039-5.018-20.167 6.562-36.531 20.637-46.079 39.635-2.48 4.935-.49 10.945 4.444 13.425 1.441.725 2.973 1.067 4.483 1.067 3.661 0 7.187-2.018 8.943-5.512 7.131-14.188 19.347-24.7 34.397-29.597 15.165-4.935 31.39-3.593 45.687 3.776 4.909 2.531 10.94.603 13.47-4.307s.603-10.939-4.306-13.469z"/><path d="m151.101 192.899c5.512.327 10.243-3.892 10.562-9.405s-3.891-10.242-9.405-10.562c-21.223-1.229-41.598 5.903-57.364 20.088-15.855 14.265-25.151 33.929-26.174 55.37-.263 5.517 3.996 10.202 9.512 10.465.163.008.324.012.484.012 5.304 0 9.726-4.169 9.981-9.523.766-16.066 7.717-30.789 19.573-41.454 11.766-10.586 26.979-15.915 42.831-14.991z"/><circle cx="487.412" cy="339.279" r="10"/><path d="m469.787 115.321c-26.208-39.715-63.331-72.014-106.789-92.031-63.213-29.115-137.093-31.001-201.723-5.27-65.469 26.064-118.349 79.262-143.947 144.981-23.347 59.94-23.081 127.969.676 187.715 24.021 60.411 71.326 110.454 130.321 137.775 63.279 29.305 137.469 31.294 202.234 5.509 27.052-10.77 51.799-25.846 73.566-44.817 21.045-18.351 38.85-39.924 52.938-64.13 1.341-2.311 1.711-5.01 1.028-7.593-.682-2.582-2.329-4.748-4.639-6.089-2.664-1.556-5.858-1.792-8.73-.649-2.1.836-3.806 2.312-4.937 4.259-26.784 45.985-67.108 80.713-116.639 100.432-58.564 23.316-122.719 22.42-180.633-2.52-57.901-24.965-102.626-70.986-125.923-129.577s-22.395-122.776 2.54-180.722c24.961-57.935 70.964-102.687 129.529-126.003s122.719-22.42 180.633 2.52c57.902 24.966 102.614 70.981 125.925 129.577 15.87 39.912 20.591 83.295 13.651 125.45-.894 5.439 2.796 10.603 8.245 11.503 1.793.287 3.632.094 5.314-.576 3.29-1.31 5.604-4.18 6.175-7.67 3.705-22.464 4.385-45.306 2.023-67.895-2.431-23.305-8.09-46.252-16.821-68.211-6.422-16.145-14.5-31.545-24.017-45.968z"/></g></g></svg>