<svg id="Layer_1" enable-background="new 0 0 512 512" height="512" viewBox="0 0 512 512" width="512" xmlns="http://www.w3.org/2000/svg"><g><path d="m255.998 10c-135.862 0-246 110.138-246 246s110.138 246 246 246 246-110.138 246-246-110.138-246-246-246z" fill="#ffea60"/><circle cx="163.998" cy="200" fill="#efefef" r="30"/><circle cx="347.998" cy="200" fill="#efefef" r="30"/><ellipse cx="256" cy="362" fill="#8690af" rx="60" ry="80"/><g><path d="m163.998 240c22.056 0 40-17.944 40-40s-17.944-40-40-40-40 17.944-40 40 17.943 40 40 40zm0-60c11.028 0 20 8.972 20 20s-8.972 20-20 20-20-8.972-20-20 8.972-20 20-20z"/><path d="m387.998 200c0-22.056-17.944-40-40-40s-40 17.944-40 40 17.944 40 40 40 40-17.944 40-40zm-60 0c0-11.028 8.972-20 20-20s20 8.972 20 20-8.972 20-20 20-20-8.972-20-20z"/><path d="m411.407 169.573c4.646-2.986 5.992-9.173 3.005-13.819-11.607-18.06-29.492-30.443-50.358-34.869-20.75-4.404-41.963-.395-59.733 11.286-4.615 3.033-5.897 9.233-2.864 13.849s9.234 5.898 13.849 2.864c13.272-8.725 29.11-11.721 44.597-8.435 15.603 3.31 28.986 12.586 37.685 26.119 1.911 2.973 5.132 4.594 8.421 4.594 1.852 0 3.725-.513 5.398-1.589z"/><path d="m196.694 148.884c4.616 3.033 10.816 1.752 13.849-2.864 3.034-4.615 1.751-10.815-2.864-13.849-17.771-11.68-38.984-15.689-59.733-11.286-20.867 4.426-38.751 16.81-50.358 34.869-2.986 4.646-1.641 10.833 3.005 13.819 1.673 1.075 3.546 1.589 5.397 1.589 3.289 0 6.511-1.621 8.421-4.594 8.698-13.533 22.082-22.81 37.685-26.119 15.487-3.284 31.324-.289 44.598 8.435z"/><path d="m256 452c19.251 0 37.159-9.742 50.426-27.432 12.623-16.829 19.574-39.049 19.574-62.568s-6.951-45.739-19.574-62.568c-13.267-17.69-31.175-27.432-50.426-27.432s-37.159 9.742-50.426 27.432c-12.623 16.829-19.574 39.05-19.574 62.568s6.951 45.739 19.574 62.568c13.267 17.69 31.175 27.432 50.426 27.432zm0-160c27.57 0 50 31.402 50 70s-22.43 70-50 70-50-31.402-50-70 22.43-70 50-70z"/><circle cx="414.518" cy="444.102" r="10"/><path d="m511.569 241.624c-2.757-47.487-18.674-94.038-46.231-133.149-40.084-56.89-103.049-95.588-171.862-105.768-69.705-10.313-142.126 9.151-197.225 53.127-50.254 40.11-84.138 99.061-93.546 162.637-9.513 64.283 6.314 131.284 43.649 184.506 40.046 57.086 103.228 96.029 172.184 106.23 28.802 4.261 57.77 3.643 86.114-1.838 27.408-5.307 53.628-15.026 77.953-28.886 2.319-1.325 3.992-3.473 4.697-6.049.704-2.575.366-5.274-.959-7.593-1.524-2.682-4.169-4.489-7.226-4.941-2.236-.331-4.451.089-6.406 1.206-46.23 26.32-98.527 36.114-151.264 28.312-62.354-9.225-117.403-42.188-154.997-92.808-37.57-50.637-53.183-112.866-43.956-175.212s42.195-117.388 92.822-154.977c50.645-37.566 112.882-53.178 175.236-43.953s117.403 42.188 154.996 92.808c37.57 50.637 53.175 112.855 43.957 175.212-6.285 42.47-23.956 82.347-51.099 115.313-3.501 4.254-2.899 10.57 1.364 14.083 1.407 1.148 3.095 1.903 4.886 2.168 3.503.518 6.944-.802 9.188-3.533 14.47-17.563 26.512-36.971 35.796-57.687 9.583-21.369 16.195-44.048 19.653-67.415 2.542-17.181 3.277-34.549 2.276-51.793z"/></g></g></svg>